# xmcd
#
# Track frame offsets:
# 150
# 23480
# 39590
# 54970
# 73335
# 100975
# 126030
# 152230
# 187457
# 223090
# 241580
#
# Disc length: 3602 seconds
#
#
# Revision: 2
# Processed by: cddbd v1.5.1PL2 Copyright (c) Steve Scherf et al.
# Submitted via: FreeRIP 2.945 
#
DISCID=9a0e100b
DTITLE=Jethro Tull - Roots To Branches
DYEAR=1900
DGENRE=Folk/Rock
TTITLE0=Roots To Branches
TTITLE1=Rare And Precious Chain
TTITLE2=Out Of The Noise
TTITLE3=This Free Will
TTITLE4=Valley
TTITLE5=Dangerous Veils
TTITLE6=Beside Myself
TTITLE7=Wounded, Old And Treachreous
TTITLE8=At Last, Forever
TTITLE9=Stuck In August Rain
TTITLE10=Another Harry's Bar
EXTD=
EXTT0=
EXTT1=
EXTT2=
EXTT3=
EXTT4=
EXTT5=
EXTT6=
EXTT7=
EXTT8=
EXTT9=
EXTT10=
PLAYORDER=
